<?xml version="1.0" encoding="UTF-8" standalone="no"?>
<!-- Created with Inkscape (http://www.inkscape.org/) -->

<svg
   width="33.205963mm"
   height="30.749201mm"
   viewBox="0 0 33.205964 30.749199"
   version="1.1"
   id="svg1"
   inkscape:version="1.4 (1:1.4+202410161351+e7c3feb100)"
   sodipodi:docname="circle.svg"
   xmlns:inkscape="http://www.inkscape.org/namespaces/inkscape"
   xmlns:sodipodi="http://sodipodi.sourceforge.net/DTD/sodipodi-0.dtd"
   xmlns="http://www.w3.org/2000/svg"
   xmlns:svg="http://www.w3.org/2000/svg">
  <sodipodi:namedview
     id="namedview1"
     pagecolor="#ffffff"
     bordercolor="#000000"
     borderopacity="0.25"
     inkscape:showpageshadow="2"
     inkscape:pageopacity="0.0"
     inkscape:pagecheckerboard="0"
     inkscape:deskcolor="#d1d1d1"
     inkscape:document-units="mm"
     inkscape:zoom="1.0242632"
     inkscape:cx="25.872256"
     inkscape:cy="21.96701"
     inkscape:window-width="1241"
     inkscape:window-height="1049"
     inkscape:window-x="941"
     inkscape:window-y="357"
     inkscape:window-maximized="0"
     inkscape:current-layer="layer1" />
  <defs
     id="defs1" />
  <g
     inkscape:label="Layer 1"
     inkscape:groupmode="layer"
     id="layer1"
     transform="translate(-88.475831,-133.10871)">
    <path
       d="m 114.58031,140.38172 c 0.20462,-0.10512 0.4077,-0.15454 0.60797,-0.15947 0.19904,-0.003 0.40148,0.0301 0.58284,0.11447 0.18469,0.0806 0.36395,0.19403 0.53655,0.32801 0.16729,0.13896 0.32119,0.30496 0.47262,0.47646 0.1552,0.16875 0.28331,0.36315 0.41618,0.54972 0.0655,0.0934 0.13078,0.18673 0.19549,0.27912 0.061,0.094 0.12136,0.18729 0.18085,0.27909 0.0601,0.091 0.12087,0.17925 0.18289,0.26374 0.0617,0.0847 0.12708,0.16412 0.18583,0.24425 0.1216,0.15773 0.25223,0.29635 0.39895,0.40894 0.64,0.98909 1.10952,2.06754 1.40557,3.18052 0.29758,1.11286 0.42844,2.25983 0.39388,3.39739 -0.0704,2.29615 -0.82252,4.41489 -1.90603,6.20492 -0.003,-0.003 -0.003,-0.005 -0.005,-0.006 0.0111,0.10931 -0.0353,0.21678 -0.15202,0.25403 0.0217,0.141 -0.0789,0.22563 -0.19034,0.3167 -0.0549,0.0462 -0.11509,0.0927 -0.16672,0.14861 -0.0509,0.0564 -0.0914,0.12355 -0.1087,0.21114 -0.0781,0.0273 -0.13302,0.0895 -0.1781,0.17012 -0.0226,0.0403 -0.0424,0.0855 -0.062,0.13267 -0.0202,0.0467 -0.0412,0.0952 -0.0623,0.14406 -0.0842,0.19569 -0.17954,0.40039 -0.37872,0.45951 -0.4151,0.56819 -0.88056,1.10299 -1.38442,1.60026 -0.51162,0.48994 -1.05691,0.94525 -1.63388,1.35558 -1.15741,0.81955 -2.42292,1.4486 -3.70836,1.93203 0.003,0.006 0.006,0.014 0.01,0.0207 -0.63863,0.27534 -1.3413,0.52314 -2.08239,0.71355 -0.74064,0.1915 -1.51838,0.3286 -2.29953,0.39909 -0.78107,0.0704 -1.56541,0.0768 -2.31648,0.0123 -0.75108,-0.0627 -1.4684,-0.19033 -2.1176,-0.36675 -0.17883,-0.0477 -0.36518,-0.0749 -0.55285,-0.10722 -0.0941,-0.0149 -0.18889,-0.028 -0.28402,-0.0409 -0.0948,-0.0143 -0.18918,-0.0313 -0.28345,-0.0477 -0.0941,-0.0173 -0.1881,-0.0338 -0.280047,-0.056 -0.0916,-0.0232 -0.182011,-0.0488 -0.270182,-0.078 -0.177007,-0.0557 -0.342431,-0.13578 -0.491478,-0.237 -0.07021,-0.006 -0.188958,0.003 -0.217729,-0.0789 -0.173097,-0.0985 -0.457626,-0.0445 -0.575224,-0.21223 -0.516248,-0.0958 -1.032062,-0.26853 -1.529546,-0.48929 -0.123391,-0.057 -0.249102,-0.1114 -0.369089,-0.17578 -0.120645,-0.0633 -0.240627,-0.12818 -0.359673,-0.1944 -0.233598,-0.13934 -0.465529,-0.28135 -0.68268,-0.43967 0.0048,-0.006 0.01,-0.0123 0.01413,-0.0181 -0.529002,-0.37691 -1.060684,-0.75108 -1.567586,-1.15748 -0.506105,-0.40598 -0.987864,-0.84361 -1.400139,-1.33384 -0.33779,-0.38481 -0.678478,-0.76594 -0.987213,-1.16806 -0.305257,-0.40387 -0.589212,-0.82107 -0.801145,-1.27037 -0.01501,0.008 -0.02855,0.0146 -0.04318,0.0224 -0.442416,-0.78992 -0.917727,-1.5736 -1.308047,-2.40915 -0.382206,-0.83492 -0.67145,-1.72642 -0.698042,-2.64218 -0.0081,0.003 -0.01521,0.003 -0.02319,0.006 -0.157737,-1.21833 -0.251277,-2.42654 -0.194327,-3.62765 0.06419,-1.1977 0.273812,-2.39314 0.736297,-3.50881 0.361193,-0.56176 0.653771,-1.13344 0.951709,-1.70367 0.297433,-0.56907 0.600952,-1.13647 0.970331,-1.65837 0.05455,-0.0188 0.127668,-0.10378 0.209109,-0.22316 0.08035,-0.12013 0.178603,-0.26904 0.270623,-0.42394 0.189327,-0.30613 0.383799,-0.61827 0.470674,-0.69174 -0.0067,-0.005 -0.01289,-0.009 -0.01992,-0.0132 0.349165,-0.47372 0.736515,-0.92026 1.15647,-1.33369 0.420027,-0.41352 0.868892,-0.79695 1.337174,-1.15279 l 0.03377,0.0362 c 0.5974,-0.49972 1.238491,-0.95562 1.906028,-1.35383 0.667391,-0.39974 1.361374,-0.7505 2.070429,-1.0522 0.721296,-0.28657 1.428763,-0.57567 2.201873,-0.57958 0.14571,-0.0754 0.36829,0.0294 0.41582,-0.27338 0.88759,-0.20874 1.73787,-0.44749 2.64979,-0.53444 l 8.6e-4,0.022 c 1.42348,-0.10401 2.85977,-0.17418 4.29361,-0.11742 1.43173,0.0561 2.85831,0.24107 4.20498,0.64349 0.8373,0.0954 1.67127,0.19216 2.50546,0.38301 0.83121,0.19389 1.66503,0.49008 2.40915,0.99504 0.52256,0.32243 1.04648,0.65485 1.54658,1.03032 0.12708,0.09 0.24636,0.19353 0.36945,0.28953 0.12235,0.0976 0.23795,0.20498 0.35649,0.30707 0.11657,0.10698 0.23004,0.22135 0.34372,0.3322 0.10759,0.11718 0.21498,0.23403 0.31816,0.35374 0.23019,0.41373 0.47285,0.89367 0.79087,1.22835 0.0683,0.0601 0.10119,0.13773 0.12309,0.2188 0.0215,0.0815 0.0265,0.17006 0.0498,0.24962 0.22947,0.24331 0.41589,0.65747 0.50371,1.01721 0.0302,0.16252 0.003,0.32583 -0.0309,0.4856 -0.0187,0.0807 -0.0364,0.16005 -0.0449,0.23853 -0.01,0.0788 -0.005,0.15563 0.006,0.2362 0.006,0.13361 0.003,0.25868 -0.0158,0.37584 -0.024,0.11779 -0.0582,0.22671 -0.10231,0.32626 -0.0111,0.025 -0.0225,0.0491 -0.035,0.0729 -0.014,0.0239 -0.0285,0.0471 -0.0438,0.0697 -0.0303,0.0453 -0.0627,0.0883 -0.0974,0.12883 -0.0707,0.0812 -0.14405,0.15345 -0.23585,0.21591 -0.1849,0.12463 -0.39445,0.21426 -0.64007,0.26998 -0.24976,0.0547 -0.52467,0.0777 -0.82078,0.0723 -0.15825,-0.003 -0.28454,-0.0566 -0.38793,-0.13435 -0.0515,-0.0391 -0.0971,-0.0841 -0.13658,-0.13267 -0.0196,-0.0243 -0.0379,-0.0496 -0.0546,-0.0755 -0.0204,-0.0271 -0.0394,-0.0549 -0.057,-0.0831 -0.13302,-0.22484 -0.23511,-0.50009 -0.36698,-0.80536 -0.12882,-0.30307 -0.2891,-0.6376 -0.46336,-0.90612 -0.16709,-0.27077 -0.33815,-0.46603 -0.4064,-0.52741 -0.0528,-0.0636 -0.11374,-0.12075 -0.16709,-0.18375 -0.0557,-0.0611 -0.1173,-0.1162 -0.17295,-0.17686 -0.0582,-0.0578 -0.12062,-0.11017 -0.17845,-0.16788 l -0.2043,-0.1762 c -0.28112,-0.2331 -0.59761,-0.45169 -0.94794,-0.6466 -0.12074,-0.0423 -0.23294,-0.0992 -0.35511,-0.15521 -0.12037,-0.0602 -0.24229,-0.12135 -0.36482,-0.18272 -0.0606,-0.0322 -0.12571,-0.0617 -0.1899,-0.0918 -0.0646,-0.0296 -0.12767,-0.0605 -0.19433,-0.0879 -0.13433,-0.0543 -0.26641,-0.10697 -0.40807,-0.14469 v -6.6e-4 c -0.1234,-0.0473 -0.35561,-0.1268 -0.48792,-0.17121 l -0.017,0.0465 c -0.32367,-0.1087 -0.65703,-0.21354 -0.99961,-0.31526 -0.3462,-0.10033 -0.69529,-0.19969 -1.0446,-0.29134 -0.69869,-0.18549 -1.40035,-0.35172 -2.10412,-0.49634 -1.40731,-0.2883 -2.82361,-0.49399 -4.23875,-0.57898 -0.39241,-0.0155 -0.78673,0.0774 -1.16762,0.1236 -0.66355,0.0543 -1.3463,-0.0413 -2.00559,0.11066 l 0.009,0.0217 c -0.0697,0.11485 -0.17825,0.11645 -0.28287,0.0975 -0.0991,-0.0269 -0.19274,0.008 -0.28599,0.0339 -0.0936,0.0266 -0.18433,0.0521 -0.28547,2.6e-4 -0.0354,0.0514 -0.0942,0.0712 -0.1497,0.0243 -0.48865,0.24945 -0.97692,0.46226 -1.46708,0.66834 -0.490391,0.20496 -0.981205,0.40654 -1.466159,0.6308 -0.484295,0.22388 -0.967722,0.46864 -1.41492,0.75345 -0.450241,0.2865 -0.878673,0.62052 -1.255952,1.0099 0.01033,-0.0188 0.01463,-0.0407 -0.0081,-0.0786 -0.325979,0.30454 -0.631888,0.63355 -0.922363,0.97628 -0.289535,0.34351 -0.566099,0.69998 -0.817521,1.07409 l 0.04,0.029 c 0.01156,-0.0167 0.08999,-0.13021 0.167373,-0.24207 0.07993,-0.11005 0.163461,-0.21455 0.176938,-0.21947 -0.276057,0.45248 -0.571605,0.88889 -0.844692,1.34376 -0.272579,0.45401 -0.522046,0.92671 -0.693259,1.42913 -0.0067,-0.003 -0.01413,-0.006 -0.02072,-0.01 -0.352789,0.85637 -0.615006,1.74888 -0.771729,2.65414 l -0.02449,-0.009 c -0.07499,0.0604 -0.112665,0.12723 -0.01978,0.20903 -0.0047,2.7e-4 -0.0076,8.7e-4 -0.01156,0.003 l -0.0026,-6.5e-4 c -0.107095,0.0712 -0.163895,0.25156 -0.02941,0.34293 -0.170488,0.10943 -0.194689,0.35409 -0.04093,0.45908 -0.02941,0.24265 -0.05645,0.4798 -0.0539,0.71957 -0.0052,-0.0204 -0.02217,-0.0389 -0.05948,-0.0557 -0.0023,0.10169 -0.0047,0.20333 -0.007,0.30447 0.05238,-0.0181 0.05999,-0.045 0.06304,-0.0724 -0.06557,0.19526 -0.08984,0.38626 -0.107672,0.57964 -0.0056,0.0964 -0.0055,0.19317 -0.0052,0.29143 7.16e-4,0.0491 7.16e-4,0.0986 0.0029,0.14845 0.0035,0.0498 0.007,0.1 0.0107,0.15086 l 0.01593,-0.006 c 0.05282,0.38816 0.129551,0.78137 0.218238,1.1764 0.08659,0.39554 0.200776,0.7908 0.326848,1.18343 0.255263,0.78455 0.591241,1.5536 0.99772,2.25975 -0.0067,0.003 -0.01399,0.008 -0.02058,0.01 0.558055,1.06996 1.298773,2.06225 2.169476,2.91629 0.871719,0.85374 1.868495,1.57156 2.932584,2.12367 1.062639,0.54944 2.20367,0.93027 3.38825,1.17162 1.18387,0.2425 2.40526,0.33315 3.63077,0.31062 1.1861,-0.0341 2.38684,-0.22998 3.52869,-0.6208 1.14038,-0.38997 2.21975,-0.97962 3.12813,-1.76343 0.10808,-0.0933 0.21947,-0.18245 0.3325,-0.27042 0.10845,-0.0933 0.21933,-0.18432 0.33193,-0.27409 0.11508,-0.0872 0.22069,-0.18491 0.33127,-0.27802 0.10918,-0.0944 0.22316,-0.18505 0.32553,-0.28693 0.10464,-0.10033 0.20926,-0.20054 0.31368,-0.30062 0.0981,-0.10586 0.19446,-0.21352 0.28886,-0.32264 0.0971,-0.10722 0.18028,-0.22454 0.26274,-0.34207 0.0806,-0.11878 0.16491,-0.23482 0.22875,-0.36336 0.0879,-0.064 0.1625,-0.14246 0.23048,-0.22795 0.0336,-0.043 0.0674,-0.0867 0.0968,-0.13325 0.0283,-0.0473 0.0567,-0.0949 0.0851,-0.14267 0.0564,-0.0958 0.11324,-0.19179 0.17831,-0.28207 0.0658,-0.09 0.12898,-0.17975 0.21476,-0.25584 0.0517,-0.0527 0.049,-0.13231 0.0498,-0.20743 6.4e-4,-0.0377 0.003,-0.0742 0.0123,-0.10624 0.009,-0.0324 0.0249,-0.061 0.0578,-0.0814 -0.0196,-0.10894 0.0513,-0.24149 0.18999,-0.25084 0.36814,-0.72862 0.65724,-1.50028 0.84781,-2.29743 0.0453,-0.19948 0.0816,-0.40083 0.12425,-0.60211 0.028,-0.20237 0.0581,-0.40575 0.0841,-0.60929 0.0125,-0.20281 0.0344,-0.40604 0.0423,-0.61051 l 0.003,-0.3075 c -6.5e-4,-0.10255 0.008,-0.20578 -0.003,-0.30837 -0.0544,-1.64649 -0.55659,-3.31218 -1.45947,-4.71616 -0.0668,-0.0879 -0.10524,-0.18324 -0.13883,-0.27178 -0.0324,-0.0894 -0.0482,-0.18151 -0.0529,-0.27475 -0.005,-0.0932 0.003,-0.18774 0.0144,-0.28164 0.006,-0.047 0.014,-0.0937 0.0228,-0.14006 0.009,-0.0453 0.0163,-0.0899 0.024,-0.13361 0.0681,-0.35055 0.15933,-0.66428 -0.0226,-0.7794 -0.10267,-0.0742 -0.20759,-0.14644 -0.30831,-0.22216 -0.0503,-0.0379 -0.0997,-0.0766 -0.1473,-0.11693 l -0.0704,-0.0614 c -0.0243,-0.0193 -0.0482,-0.0394 -0.0714,-0.0598 -0.093,-0.082 -0.17628,-0.17354 -0.24576,-0.2817 -0.0348,-0.0541 -0.066,-0.11238 -0.0934,-0.17579 -0.0284,-0.062 -0.0557,-0.12542 -0.0771,-0.197 0.0177,-0.22679 -0.003,-0.50147 0.0225,-0.7708 0.0267,-0.26873 0.0981,-0.53269 0.33018,-0.7205 z"
       id="path6"
       style="fill:#0000ff;stroke-width:0.072456" />
  </g>
</svg>
