<?xml version="1.0" encoding="UTF-8" standalone="no"?>
<!-- Created with Inkscape (http://www.inkscape.org/) -->

<svg
   width="27.989717mm"
   height="27.535025mm"
   viewBox="0 0 27.989718 27.535026"
   version="1.1"
   id="svg1"
   inkscape:version="1.4 (1:1.4+202410161351+e7c3feb100)"
   sodipodi:docname="cross.svg"
   xmlns:inkscape="http://www.inkscape.org/namespaces/inkscape"
   xmlns:sodipodi="http://sodipodi.sourceforge.net/DTD/sodipodi-0.dtd"
   xmlns="http://www.w3.org/2000/svg"
   xmlns:svg="http://www.w3.org/2000/svg">
  <sodipodi:namedview
     id="namedview1"
     pagecolor="#ffffff"
     bordercolor="#000000"
     borderopacity="0.25"
     inkscape:showpageshadow="2"
     inkscape:pageopacity="0.0"
     inkscape:pagecheckerboard="0"
     inkscape:deskcolor="#d1d1d1"
     inkscape:document-units="mm"
     inkscape:zoom="0.72426347"
     inkscape:cx="53.157451"
     inkscape:cy="51.776738"
     inkscape:window-width="1920"
     inkscape:window-height="1019"
     inkscape:window-x="0"
     inkscape:window-y="31"
     inkscape:window-maximized="1"
     inkscape:current-layer="layer1" />
  <defs
     id="defs1" />
  <g
     inkscape:label="Layer 1"
     inkscape:groupmode="layer"
     id="layer1"
     transform="translate(-91.041431,-134.66819)">
    <path
       d="m 112.24181,143.00774 c 0.97639,-0.79673 1.9686,-1.62529 2.92079,-2.45184 1.23934,-1.09023 2.46069,-2.21444 3.52855,-3.48166 0.98082,-1.20891 -0.33218,-2.91275 -1.75679,-2.26283 -0.34091,0.16056 -0.67046,0.33507 -0.99537,0.5172 -4.68522,2.65607 -8.70841,6.69516 -12.71626,10.27772 -1.34425,-1.61332 -2.62831,-3.28734 -4.013087,-4.86868 -1.042522,-1.19523 -2.128526,-2.36611 -3.378244,-3.35505 -1.206394,-0.90382 -2.841115,0.35888 -2.256921,1.76163 0.791018,1.76351 1.906855,3.35204 3.085668,4.87353 1.150152,1.48516 2.416873,2.87449 3.684874,4.26177 -1.827226,1.77379 -3.570442,3.63626 -5.155899,5.63253 -1.424241,1.77084 -2.751428,3.61938 -3.90294,5.5868 -0.454486,0.77738 -0.264268,1.7893 0.473009,2.34348 0.796321,0.59901 1.929356,0.43519 2.523704,-0.36442 1.11337,-1.48585 2.283094,-2.94715 3.490722,-4.36357 0.516503,-0.60402 1.057016,-1.21721 1.585004,-1.81048 1.22922,-1.34228 2.46286,-2.68519 3.72338,-4.00292 1.39862,1.54394 2.83379,3.09163 4.3518,4.47882 2.30655,2.09099 4.76365,4.02651 7.46807,5.58651 1.97243,1.05436 3.72256,-1.5841 1.98539,-2.99188 -2.05472,-1.56569 -4.0461,-3.24794 -5.96654,-5.01251 -0.43231,-0.40001 -0.92077,-0.85742 -1.35239,-1.25665 -1.25945,-1.17362 -2.51487,-2.35965 -3.71931,-3.59451 0.20092,-0.19418 0.40252,-0.38774 0.60559,-0.57979 1.83605,-1.74121 3.82034,-3.33392 5.7872,-4.9232 z"
       id="path6"
       style="fill:#ff0000;stroke-width:0.0457366" />
  </g>
</svg>
